<svg width="155" height="28" viewBox="0 0 155 28" fill="none" xmlns="http://www.w3.org/2000/svg">
<g clip-path="url(#clip0_1_505)" filter="url(#filter0_d_1_505)">
<path d="M46.1517 0.694336H36.8756L44.7463 10.2109L31.2538 19.9994H40.2488L48.1194 14.0176L53.1791 19.9994H62.4551L54.0223 10.2109L67.5148 0.694336H58.2387L50.6492 6.13239L46.1517 0.694336Z" fill="#888888"/>
<path d="M76.2292 13.7461L67.2342 0.422852L75.9481 0.694754L81.0078 8.57993L89.4406 0.694754H98.4355L82.9754 13.7461L81.2888 19.9998H74.5426L76.2292 13.7461Z" fill="#888888"/>
<path d="M103.214 0.422852L97.3111 5.86091H114.768C115.672 5.86091 116.182 6.9003 115.628 7.61494C115.422 7.88064 115.104 8.03613 114.768 8.03613H104.901L100.122 12.3866H112.624C113.444 12.3866 113.88 13.3553 113.336 13.9694C113.156 14.1732 112.896 14.2899 112.624 14.2899H98.1543L92.2514 19.9998H112.76C116.147 19.9998 119.179 17.8958 120.363 14.7222L121.064 12.8448C121.54 11.5697 120.597 10.2113 119.236 10.2113C120.56 10.2113 121.717 9.31591 122.048 8.03414L123.042 4.18879C123.534 2.28192 122.095 0.422852 120.125 0.422852H103.214Z" fill="#888888"/>
<path d="M130.199 0.422852L124.296 5.86091H141.753C142.657 5.86091 143.167 6.9003 142.613 7.61494C142.407 7.88064 142.089 8.03613 141.753 8.03613H131.886L127.107 12.3866H139.609C140.43 12.3866 140.865 13.3553 140.321 13.9694C140.141 14.1732 139.881 14.2899 139.609 14.2899H125.139L119.236 19.9998H139.745C143.132 19.9998 146.164 17.8958 147.348 14.7222L148.049 12.8448C148.525 11.5697 147.582 10.2113 146.221 10.2113C147.545 10.2113 148.702 9.31591 149.033 8.03414L150.027 4.18879C150.52 2.28192 149.08 0.422852 147.11 0.422852H130.199Z" fill="#888888"/>
<path fill-rule="evenodd" clip-rule="evenodd" d="M5.70654 17.2173C6.30626 17.7774 6.98869 18.2175 7.77453 18.5575C11.3408 20.072 15.0654 20.0262 18.8753 19.9794L19.0037 19.9778C20.4929 19.9778 22.11 19.7542 23.5533 19.3977C25.135 19.001 26.5739 18.5669 28.0201 17.8174C29.492 17.0547 30.6726 16.0388 31.7425 14.7968C32.3808 14.056 32.8205 13.2173 33.2108 12.3364C34.0888 10.298 34.8861 6.97167 34.1 4.955C34.0854 4.91825 34.0708 4.8813 34.0561 4.84421C33.8633 4.35654 33.6616 3.84653 33.3349 3.47473C32.6318 2.69458 31.8253 1.99445 30.7913 1.51436C29.6952 0.994263 28.5785 0.634196 27.4411 0.434159C25.887 0.158546 23.0313 -0.0934936 20.2031 0.0340837C17.9025 0.137868 15.5031 0.417404 13.2961 1.07428C11.5204 1.56502 10.1382 2.41846 8.62241 3.37471C7.93997 3.79479 7.44365 4.35489 6.94734 4.935C6.21031 5.64792 5.62558 6.59489 5.25158 7.53549C4.46015 9.55873 4.18903 11.4702 4.01079 13.5966C3.88584 14.8052 4.87037 16.4085 5.70654 17.2173ZM16.1087 5.7546C15.0748 5.93463 14.1235 6.21468 13.2342 6.75479C11.3506 7.8658 10.9594 10.3369 10.9594 12.2558C10.9594 12.7359 11.6005 13.6161 12.0555 13.7761C15.4552 14.93 20.5225 14.9486 23.8844 13.8361C24.6289 13.5961 25.2286 13.236 25.7663 12.7159C26.8573 11.6241 27.5241 9.76808 27.5241 8.25506C27.5241 7.09485 26.8209 6.13467 25.6629 5.91463C22.6208 5.34046 19.1537 5.22443 16.1087 5.7546Z" fill="#888888"/>
</g>
<defs>
<filter id="filter0_d_1_505" x="0" y="0" width="155" height="28" filterUnits="userSpaceOnUse" color-interpolation-filters="sRGB">
<feFlood flood-opacity="0" result="BackgroundImageFix"/>
<feColorMatrix in="SourceAlpha" type="matrix" values="0 0 0 0 0 0 0 0 0 0 0 0 0 0 0 0 0 0 127 0" result="hardAlpha"/>
<feOffset dy="4"/>
<feGaussianBlur stdDeviation="2"/>
<feComposite in2="hardAlpha" operator="out"/>
<feColorMatrix type="matrix" values="0 0 0 0 0 0 0 0 0 0 0 0 0 0 0 0 0 0 0.25 0"/>
<feBlend mode="normal" in2="BackgroundImageFix" result="effect1_dropShadow_1_505"/>
<feBlend mode="normal" in="SourceGraphic" in2="effect1_dropShadow_1_505" result="shape"/>
</filter>
<clipPath id="clip0_1_505">
<rect width="147" height="20" fill="white" transform="translate(4)"/>
</clipPath>
</defs>
</svg>
